<?xml version="1.0" standalone="no"?>
<!DOCTYPE svg PUBLIC "-//W3C//DTD SVG 20010904//EN"
 "http://www.w3.org/TR/2001/REC-SVG-20010904/DTD/svg10.dtd">
<svg version="1.0" xmlns="http://www.w3.org/2000/svg"
 width="2000.000000pt" height="2000.000000pt" viewBox="0 0 2000.000000 2000.000000"
 preserveAspectRatio="xMidYMid meet">
<metadata>
Created by potrace 1.11, written by Peter Selinger 2001-2013
</metadata>
<g transform="translate(0.000000,2000.000000) scale(0.100000,-0.100000)"
fill="#000000" stroke="none">
<path d="M9865 18049 c-341 -159 -678 -303 -963 -413 -364 -141 -677 -338
-940 -591 -225 -216 -394 -449 -537 -740 -190 -386 -295 -800 -323 -1276 l-7
-117 -90 -64 c-99 -71 -156 -141 -179 -219 -8 -26 -24 -195 -37 -385 -18 -270
-20 -349 -11 -392 6 -30 56 -146 111 -258 l99 -203 -156 -62 c-559 -219 -967
-344 -1339 -411 -108 -19 -163 -22 -348 -23 -213 0 -284 8 -367 40 -17 7 -18
-17 -18 -422 l0 -430 -61 -17 c-102 -28 -258 -94 -364 -152 -376 -209 -624
-538 -711 -944 -25 -116 -25 -371 -1 -492 55 -273 184 -514 382 -713 l90 -90
-61 -60 c-94 -93 -108 -138 -109 -345 0 -91 3 -180 7 -198 7 -32 6 -31 -47 26
-37 41 -74 68 -117 88 -56 26 -74 29 -158 29 -127 0 -183 -27 -295 -140 -156
-157 -223 -320 -232 -565 -6 -151 8 -251 54 -387 96 -289 327 -573 648 -795
197 -137 463 -267 733 -359 l149 -50 71 -72 71 -72 26 -130 c39 -197 70 -312
140 -522 l65 -191 -350 -903 c-193 -496 -347 -906 -343 -910 5 -4 703 -221
1553 -483 850 -262 1558 -481 1575 -487 16 -5 25 -6 20 -1 -6 5 -377 260 -825
566 -448 307 -821 563 -828 570 -10 10 22 19 154 45 l166 32 32 -26 c175 -142
519 -374 1951 -1316 913 -600 1683 -1103 1710 -1117 75 -39 200 -43 281 -10
68 28 3301 2151 3499 2298 72 53 152 115 178 138 27 23 51 42 55 42 19 0 358
-73 364 -79 3 -3 -365 -260 -819 -571 -453 -311 -827 -568 -829 -571 -2 -4 65
14 149 40 83 26 792 245 1575 487 1309 404 1423 441 1419 459 -2 11 -150 398
-330 860 -179 462 -340 879 -358 927 l-32 87 47 143 c49 153 105 367 126 485
l13 73 106 103 106 102 150 55 c194 71 470 208 613 304 406 271 666 623 736
996 21 107 20 289 0 388 -48 232 -196 446 -362 525 -61 29 -76 32 -162 32 -83
0 -102 -3 -151 -27 -50 -25 -109 -76 -155 -133 -15 -19 -15 -19 -9 5 4 14 9
86 12 160 8 214 -18 302 -118 401 l-56 56 84 83 c374 370 503 889 342 1374
-142 427 -489 751 -979 917 l-85 28 -3 1974 -2 1974 -83 6 c-45 4 -172 7 -282
7 -589 0 -1249 -87 -1932 -256 -84 -21 -155 -35 -158 -33 -2 3 -19 52 -36 110
-127 427 -367 836 -669 1140 -150 151 -240 224 -420 344 -210 140 -429 247
-720 350 -130 47 -402 164 -709 306 -129 60 -239 109 -245 109 -6 -1 -69 -28
-141 -61z m211 -355 c134 -90 462 -239 769 -349 391 -140 648 -288 908 -521
l57 -51 -105 -274 c-58 -150 -104 -276 -103 -280 2 -3 92 67 202 158 109 90
203 162 210 160 20 -6 165 -230 230 -357 195 -378 291 -769 303 -1235 l6 -220
-34 26 c-144 108 -272 190 -281 181 -20 -20 30 -94 187 -282 240 -286 330
-428 342 -542 8 -77 -28 -173 -162 -433 -168 -325 -164 -313 -256 -750 -123
-588 -139 -667 -155 -777 -20 -139 -16 -163 29 -177 44 -15 111 -85 136 -141
35 -79 50 -234 32 -315 -7 -29 -8 -27 -25 29 -39 130 -112 238 -187 277 -82
42 -218 14 -259 -53 -42 -70 -18 -179 50 -225 54 -37 114 -24 159 34 l22 26
27 -19 c45 -33 72 -99 72 -176 0 -37 -5 -90 -11 -118 l-11 -51 -34 40 c-50 58
-124 84 -239 85 -114 0 -209 -28 -309 -94 -86 -57 -204 -179 -236 -245 -31
-64 -38 -137 -16 -170 22 -34 31 -32 53 12 24 48 44 60 76 46 l24 -11 -19 -59
c-60 -175 64 -349 226 -319 48 9 94 50 102 91 6 35 -5 65 -39 103 l-20 22 32
0 c31 0 81 36 81 60 0 19 41 10 65 -15 33 -32 32 -75 -4 -150 -31 -66 -73
-108 -136 -136 -35 -16 -282 -92 -340 -105 -15 -3 -26 6 -45 37 -29 48 -91 94
-156 116 -72 24 -208 15 -266 -20 -73 -42 -86 -109 -37 -179 45 -62 125 -75
170 -27 l29 31 30 -30 c38 -39 39 -74 2 -133 -40 -63 -94 -106 -153 -123 -28
-9 -122 -20 -208 -26 -173 -12 -252 -29 -324 -68 -81 -43 -103 -77 -110 -165
-4 -42 -31 -293 -61 -559 -30 -266 -58 -531 -63 -590 -8 -95 -16 -131 -26
-117 -2 2 0 114 4 249 7 220 15 587 35 1561 l7 316 86 42 c400 198 793 573
1055 1010 192 320 311 644 373 1016 28 169 26 566 -4 730 -21 115 -64 279 -76
291 -3 4 -68 -30 -144 -73 -184 -106 -417 -233 -429 -233 -6 0 -28 18 -49 41
-56 57 -211 130 -290 136 -54 4 -85 -3 -304 -72 -134 -42 -247 -73 -251 -68
-5 4 -11 112 -15 238 l-7 230 44 36 c64 53 100 126 106 215 10 150 -52 240
-221 323 -56 27 -121 53 -144 56 l-43 7 0 -61 c0 -60 0 -61 40 -86 39 -24 80
-77 80 -102 0 -6 -15 4 -34 23 -30 30 -40 34 -84 34 -149 0 -176 -191 -34
-241 31 -10 32 -13 32 -64 0 -62 -10 -73 -83 -90 l-52 -12 53 -11 c73 -16 118
-15 179 7 l51 17 4 -49 c3 -49 2 -50 -32 -65 -19 -8 -54 -17 -77 -20 l-43 -5
0 -1530 0 -1530 -102 99 c-63 61 -172 149 -278 224 -214 153 -313 249 -409
395 -69 106 -301 555 -301 583 0 10 -6 12 -17 7 -10 -4 -60 -15 -111 -23 l-94
-17 -19 23 c-27 34 -39 85 -46 192 -9 149 29 386 75 477 l17 33 45 -62 c74
-101 163 -162 305 -208 129 -42 154 -61 169 -132 6 -25 2 -29 -41 -48 -52 -23
-113 -76 -144 -127 l-21 -33 33 -57 c230 -408 526 -669 782 -690 l69 -6 -48
77 c-45 73 -48 81 -51 159 -20 534 -62 1299 -72 1308 -3 4 -194 91 -423 195
-350 158 -418 192 -418 209 0 16 -40 41 -187 120 -103 55 -247 135 -320 178
-73 42 -135 77 -138 77 -16 0 -69 -206 -91 -356 -20 -134 -23 -447 -5 -589 72
-572 327 -1117 734 -1567 188 -208 467 -422 695 -533 l102 -49 0 -186 c0 -198
13 -847 31 -1518 6 -228 8 -417 4 -420 -8 -8 -236 106 -370 186 -586 349
-1148 869 -1635 1514 -170 225 -513 749 -513 783 0 5 61 178 136 383 l137 374
-16 741 -16 742 -159 324 -159 324 1 71 c0 39 8 175 17 303 l17 232 144 103
144 103 3 175 c8 459 100 861 284 1235 275 561 738 965 1365 1190 375 135 752
306 859 390 17 14 32 25 32 25 1 0 32 -21 70 -46z m4342 -4091 l-3 -1577 -127
-18 c-152 -22 -322 -64 -455 -114 -233 -87 -511 -250 -660 -388 -45 -41 -42
-19 13 81 136 251 379 473 673 615 l110 53 0 1198 1 1198 -32 -6 c-18 -3 -89
-14 -158 -26 -139 -23 -331 -60 -458 -90 -45 -10 -86 -19 -91 -19 -5 0 -11 24
-14 54 -11 113 -67 197 -188 281 -43 31 -79 60 -79 64 0 10 305 86 540 135
291 61 755 131 888 135 l42 1 -2 -1577z m-7308 -1255 c0 -101 3 -206 6 -234
l6 -50 -118 -44 c-173 -63 -389 -134 -530 -176 l-123 -35 -143 70 c-149 72
-315 131 -503 178 l-110 27 160 32 c358 72 774 197 1190 358 77 30 146 54 153
55 9 1 12 -42 12 -181z m-1669 -594 c441 -75 886 -374 1158 -778 68 -100 144
-235 329 -582 187 -351 298 -542 430 -744 149 -229 357 -497 515 -667 l58 -62
-38 6 c-342 49 -648 166 -800 306 -24 22 -43 36 -43 33 0 -22 97 -144 179
-226 120 -118 236 -201 399 -284 186 -94 388 -160 612 -200 88 -16 99 -21 145
-61 l50 -44 -357 -1 c-198 0 -391 -5 -434 -11 -154 -21 -249 -76 -297 -169
-26 -50 -28 -62 -24 -140 2 -60 10 -101 27 -137 12 -29 24 -53 25 -53 1 0 22
20 46 44 29 29 60 48 89 56 51 14 145 8 203 -12 l39 -14 -89 -26 c-102 -31
-157 -64 -161 -97 -5 -29 44 -82 112 -121 49 -29 49 -29 22 -36 -15 -3 -56 -4
-91 -2 -179 15 -360 191 -395 386 -14 81 -5 158 30 249 l27 72 -29 28 c-52 49
-180 202 -333 398 -159 204 -225 280 -320 363 -144 128 -319 194 -515 195
-125 1 -203 -17 -312 -71 l-76 -37 -6 29 c-3 15 -6 55 -6 87 l0 58 38 7 c95
16 316 69 396 95 203 67 347 172 411 302 109 221 48 483 -157 672 -151 140
-301 152 -417 36 -23 -23 -41 -45 -41 -50 0 -4 21 2 47 15 118 60 250 6 349
-143 104 -156 91 -306 -36 -430 -164 -160 -496 -230 -677 -142 -89 43 -196
162 -233 259 -21 55 -25 55 -58 -4 -41 -72 -139 -176 -214 -226 -94 -62 -177
-83 -306 -78 -91 4 -118 9 -179 35 -201 85 -409 306 -493 524 -58 151 -65 190
-64 364 0 145 3 168 28 249 29 97 77 198 134 285 50 77 193 218 277 273 150
99 347 180 512 212 43 8 87 17 98 19 55 12 329 6 416 -9z m9579 1 c200 -33
456 -140 609 -256 181 -136 314 -332 373 -546 28 -104 31 -343 5 -447 -52
-206 -166 -391 -328 -532 -138 -120 -242 -165 -396 -172 -123 -5 -206 16 -298
76 -71 46 -178 158 -220 230 -29 51 -45 64 -45 40 0 -7 -14 -42 -30 -77 -37
-77 -143 -187 -214 -220 -235 -109 -649 25 -757 245 -19 39 -24 65 -24 124 0
65 5 85 33 142 89 181 247 269 374 208 23 -11 44 -18 47 -15 10 11 -85 96
-126 111 -56 22 -144 15 -207 -15 -106 -52 -247 -217 -296 -349 -45 -119 -36
-292 22 -410 57 -115 192 -219 374 -288 82 -31 314 -88 424 -105 l80 -12 0
-86 c0 -47 -4 -91 -8 -97 -5 -8 -27 0 -71 27 -171 103 -385 122 -597 53 -97
-31 -164 -69 -259 -145 -89 -72 -162 -155 -354 -402 -82 -106 -192 -240 -244
-298 l-95 -105 24 -57 c32 -76 45 -173 33 -250 -32 -209 -233 -397 -423 -397
-89 0 -93 7 -28 50 67 43 104 85 100 114 -4 30 -61 63 -157 93 l-86 26 35 15
c22 10 67 16 120 16 75 1 90 -2 131 -26 25 -15 54 -39 63 -54 17 -25 18 -25
30 -7 44 63 62 226 33 295 -34 81 -113 140 -234 175 -49 14 -123 17 -466 21
l-407 4 52 43 c47 39 62 45 147 60 381 69 710 218 955 431 90 78 215 226 197
232 -7 2 -38 -14 -69 -36 -156 -109 -414 -204 -657 -242 -38 -6 -80 -13 -93
-16 -18 -4 2 24 81 113 339 385 550 704 917 1393 265 498 342 618 504 787 287
300 626 482 1016 546 67 11 323 6 410 -8z m680 -2630 c-16 -77 -70 -183 -126
-244 -97 -108 -265 -194 -479 -245 -60 -15 -121 -31 -134 -37 -24 -10 -24 -10
30 -65 30 -31 76 -71 102 -91 l48 -35 -78 -44 c-86 -49 -180 -136 -218 -201
-31 -52 -55 -143 -55 -209 0 -72 34 -195 80 -293 l41 -84 34 71 c38 80 94 140
163 174 39 19 63 23 137 23 81 0 95 -3 145 -30 103 -57 127 -130 63 -195 -74
-73 -219 -108 -485 -117 -209 -7 -353 6 -514 47 -347 87 -568 255 -656 500
-20 57 -23 83 -23 217 0 83 3 154 7 158 4 4 29 -15 56 -43 27 -27 71 -61 98
-75 100 -51 301 -72 426 -46 146 31 278 134 351 275 42 82 82 222 92 321 11
122 2 113 109 113 305 0 620 135 753 323 l38 54 3 -85 c2 -47 -2 -108 -8 -137z
m-11325 116 c147 -161 436 -271 711 -271 63 0 94 -4 94 -11 0 -51 37 -241 61
-313 38 -114 83 -187 157 -258 101 -97 213 -138 377 -138 104 0 207 20 274 52
25 12 72 48 103 80 l58 58 7 -27 c5 -16 8 -86 8 -158 0 -109 -4 -140 -23 -196
-121 -351 -531 -559 -1102 -559 -296 0 -492 45 -564 130 -102 121 124 266 319
205 80 -25 155 -96 199 -186 l33 -69 31 57 c17 32 42 92 55 133 85 254 10 444
-231 589 l-82 49 32 23 c51 36 158 141 158 155 0 7 -19 18 -42 24 -189 45
-285 76 -374 121 -161 79 -267 188 -315 323 -25 73 -42 198 -33 249 l6 41 22
-30 c11 -16 39 -49 61 -73z m9997 -142 c27 -27 61 -75 76 -107 23 -49 27 -70
27 -147 0 -110 -25 -174 -90 -234 -60 -55 -103 -71 -189 -70 -64 1 -67 2 -31
9 95 20 144 52 185 123 77 134 57 349 -42 462 -29 33 -30 37 -9 25 14 -7 47
-35 73 -61z m-8690 27 c-53 -60 -75 -136 -76 -256 -1 -101 0 -108 34 -175 42
-83 91 -122 177 -141 l58 -12 -75 -1 c-88 -1 -137 18 -192 74 -64 64 -83 116
-83 225 0 88 3 101 33 162 21 43 51 83 83 112 60 54 84 61 41 12z m1010 -573
c39 -35 8 -113 -45 -113 -58 0 -89 69 -50 112 20 22 70 23 95 1z m6717 -15
c33 -59 -28 -120 -87 -87 -34 19 -42 71 -16 100 27 30 84 22 103 -13z m-9792
-150 c146 -135 253 -193 380 -205 35 -3 63 -8 63 -11 0 -3 -6 -13 -14 -21 -14
-16 -20 -34 -17 -58 2 -25 91 -35 385 -43 319 -9 393 -19 490 -63 91 -42 142
-99 162 -182 6 -26 2 -23 -27 20 -66 97 -180 149 -329 149 -100 0 -167 -15
-273 -61 -131 -57 -215 -75 -362 -74 -106 0 -148 4 -226 24 -53 14 -114 34
-136 46 -71 35 -156 150 -211 283 -22 52 -27 79 -27 153 0 50 3 98 7 108 14
33 47 17 135 -65z m12904 40 c47 -175 -107 -474 -276 -536 -99 -37 -202 -54
-325 -54 -131 0 -231 19 -329 63 -154 70 -280 90 -397 66 -116 -25 -216 -89
-244 -157 -18 -43 -24 -30 -10 20 16 58 77 122 150 154 106 48 174 57 493 66
164 5 312 12 330 15 61 14 73 42 36 89 l-20 26 43 0 c133 0 258 67 436 232 77
71 97 74 113 16z m-9850 -151 c77 -51 88 -148 23 -212 -60 -60 -145 -56 -204
11 -53 60 -37 162 33 204 44 27 105 26 148 -3z m6804 3 c81 -50 86 -169 9
-229 -104 -82 -257 25 -215 152 11 34 53 80 81 90 34 12 94 6 125 -13z m-4895
-205 l0 -54 -82 -3 -83 -3 -3 -92 -3 -93 86 0 86 0 -3 -57 -3 -58 -82 -3 -83
-3 0 -144 0 -145 85 0 85 0 0 -55 0 -55 -140 0 -140 0 0 410 0 410 140 0 140
0 0 -55z m620 -60 l0 -115 -55 0 -54 0 -3 58 -3 57 -52 3 -53 3 0 -98 1 -98
95 -70 c53 -38 102 -79 110 -90 11 -15 14 -59 14 -187 l0 -168 -165 0 -165 0
0 141 c0 112 3 139 13 132 97 -73 97 -73 97 -119 l0 -44 55 0 55 0 0 93 0 92
-110 83 -110 82 0 180 0 180 165 0 165 0 0 -115z m618 -32 c-3 -120 -7 -155
-22 -183 -36 -68 -97 -116 -168 -134 l-28 -6 0 -175 0 -175 -55 0 -55 0 0 410
0 410 166 0 166 0 -4 -147z m622 -263 l0 -410 -165 0 -165 0 0 410 0 410 165
0 165 0 0 -410z m618 263 c-3 -139 -5 -151 -30 -196 l-27 -48 27 -52 c26 -49
27 -61 30 -214 l4 -163 -55 0 -55 0 -4 148 c-3 123 -7 153 -23 183 -19 34 -22
35 -52 27 l-33 -9 0 -174 0 -175 -55 0 -55 0 0 410 0 410 166 0 166 0 -4 -147z
m652 92 l0 -54 -82 -3 -83 -3 -3 -352 -2 -353 -55 0 -55 0 0 355 0 355 -85 0
-85 0 0 55 0 55 225 0 225 0 0 -55z m-4886 -470 c109 -20 260 -45 335 -55 186
-25 125 -24 -137 1 -441 42 -602 7 -679 -149 -27 -54 -28 -64 -27 -189 l1
-133 -54 0 c-50 0 -54 2 -83 41 -93 129 -102 312 -21 409 33 40 111 86 180
106 80 23 260 12 485 -31z m6845 26 c172 -53 250 -167 222 -322 -13 -73 -53
-164 -88 -201 -22 -23 -36 -28 -73 -28 l-47 0 5 98 c15 311 -144 426 -543 393
-274 -23 -278 -23 -105 9 91 16 212 38 270 49 141 26 280 27 359 2z m-811 -88
c-10 -2 -28 -2 -40 0 -13 2 -5 4 17 4 22 1 32 -1 23 -4z m-100 -10 c-10 -2
-26 -2 -35 0 -10 3 -2 5 17 5 19 0 27 -2 18 -5z m-5385 -10 c-7 -2 -19 -2 -25
0 -7 3 -2 5 12 5 14 0 19 -2 13 -5z m-897 -720 c-3 -10 -28 -79 -54 -153 l-48
-135 -130 -6 c-71 -4 -181 -7 -245 -8 -80 -1 -120 -5 -126 -13 -14 -18 -213
-551 -208 -556 2 -2 118 7 257 21 139 14 254 24 256 22 2 -2 -91 -278 -102
-302 -1 -1 -122 -17 -270 -37 -148 -20 -270 -37 -271 -38 -2 -2 -77 -200 -168
-442 -163 -431 -165 -438 -139 -434 15 3 141 29 280 57 139 29 256 51 259 47
7 -7 -86 -277 -101 -292 -9 -9 -441 -114 -469 -114 -21 0 28 -36 358 -262 195
-133 353 -243 351 -245 -1 -2 -276 81 -610 184 -560 173 -607 189 -603 208 2
11 192 504 422 1095 259 667 414 1079 409 1086 -5 7 -63 57 -129 112 -66 55
-149 128 -185 161 l-65 60 668 1 c632 0 668 -1 663 -17z m1350 0 c-3 -10 -46
-175 -95 -367 -49 -191 -91 -349 -93 -351 -5 -5 -343 -23 -347 -19 -3 3 76
291 125 457 5 16 -7 17 -160 17 l-164 0 -11 -32 c-57 -183 -141 -457 -141
-465 0 -10 208 -140 400 -248 74 -42 145 -86 158 -98 28 -26 28 -54 1 -161
l-21 -83 -74 -51 c-84 -59 -144 -129 -188 -222 -29 -62 -31 -71 -31 -190 0
-69 4 -139 8 -155 l8 -31 -252 -38 c-139 -21 -381 -62 -538 -91 -157 -29 -287
-51 -288 -50 -4 3 299 909 307 918 6 7 264 -128 293 -153 5 -4 -19 -96 -53
-205 -34 -108 -60 -198 -58 -200 7 -6 370 53 377 61 5 5 37 108 71 229 35 121
65 225 67 231 2 6 -56 44 -129 84 -212 115 -417 240 -433 263 -8 12 -15 31
-15 42 0 11 68 224 151 472 l151 453 490 0 c461 0 489 -1 484 -17z m1349 -20
c-3 -21 -17 -144 -30 -273 -28 -255 -33 -277 -77 -361 -26 -49 -118 -153 -170
-191 -16 -12 -16 -15 3 -38 91 -112 140 -228 138 -334 0 -33 -15 -185 -32
-336 l-32 -275 -190 -12 c-104 -6 -280 -19 -390 -28 -215 -18 -273 -16 -368
16 -89 29 -217 90 -217 103 0 11 378 1730 385 1754 3 9 111 12 495 12 l490 0
-5 -37z m1355 15 c0 -13 25 -423 56 -911 30 -489 54 -889 52 -890 -1 -1 -250
0 -553 3 -502 5 -553 7 -582 23 -68 37 -68 36 -49 335 9 147 16 277 16 290 l0
22 192 0 191 0 -6 -210 -6 -210 194 0 195 0 0 53 c0 28 -7 333 -15 677 -8 344
-15 673 -15 733 l0 107 165 0 c164 0 165 0 165 -22z m1185 0 c11 -46 45 -221
45 -229 0 -5 -105 -6 -250 -2 l-250 6 6 -44 c3 -24 18 -123 33 -219 l26 -175
262 -10 c144 -5 264 -12 266 -15 3 -3 16 -61 30 -129 l25 -124 -157 7 c-86 3
-208 9 -272 13 l-116 6 33 -224 c18 -123 41 -277 50 -341 16 -108 19 -118 38
-118 39 0 561 -42 565 -45 4 -4 30 -124 31 -140 0 -11 -23 -22 -135 -61 -85
-30 -110 -31 -460 -4 -148 11 -296 20 -327 20 -57 0 -57 0 -63 33 -8 50 -195
1763 -195 1791 l0 26 405 0 405 0 5 -22z m1429 -240 c135 -420 131 -404 131
-498 0 -72 -4 -93 -28 -141 -15 -31 -36 -64 -47 -74 -19 -17 -18 -20 88 -130
176 -184 201 -233 337 -650 140 -431 135 -410 104 -402 -13 3 -102 20 -198 36
-96 17 -175 32 -176 33 -1 2 -46 152 -99 333 -61 205 -112 355 -133 397 -21
40 -67 101 -112 148 l-76 81 -108 -12 c-97 -11 -107 -14 -101 -31 16 -51 233
-853 231 -855 -1 -1 -40 4 -86 10 l-84 12 -2 90 c-5 163 -66 296 -192 416 -40
38 -97 82 -127 99 -51 29 -54 33 -69 93 -9 34 -82 334 -162 667 -80 333 -148
613 -151 623 -5 16 23 17 485 17 l490 0 85 -262z m1706 191 c-72 -68 -208
-185 -279 -240 l-34 -27 66 -163 c55 -137 62 -164 49 -167 -41 -6 -325 26
-332 38 -5 7 -32 78 -62 157 -41 111 -57 144 -73 148 -11 2 -87 6 -168 8 -106
3 -147 1 -144 -7 2 -6 140 -387 307 -846 166 -459 307 -840 314 -846 11 -12
363 -90 371 -83 3 4 -320 867 -328 875 -2 2 -43 10 -91 16 l-87 13 -58 155
c-51 137 -56 155 -40 158 17 3 500 -46 506 -52 5 -5 623 -1600 620 -1601 -8
-7 -1219 -376 -1222 -374 -1 2 159 114 356 249 197 135 359 248 359 251 0 6
-73 24 -410 100 -145 33 -265 61 -265 62 -1 1 -174 502 -385 1112 -211 611
-385 1116 -388 1123 -3 9 150 12 744 12 l749 -1 -75 -70z m-7365 -1814 c28
-19 88 -64 135 -100 122 -94 281 -165 371 -165 13 0 30 -4 38 -9 11 -7 11 -13
-3 -32 -48 -69 -7 -79 353 -90 183 -5 323 -14 366 -23 176 -36 270 -100 300
-206 6 -22 4 -22 -13 6 -57 90 -166 144 -307 151 -111 6 -195 -12 -315 -67
-47 -22 -116 -46 -154 -55 -71 -16 -261 -22 -332 -10 -66 12 -177 46 -224 70
-64 33 -164 127 -199 188 -43 75 -89 222 -97 305 -6 66 -5 72 12 72 11 0 42
-16 69 -35z m5131 -58 c-14 -124 -82 -281 -180 -414 -38 -52 -53 -64 -103 -83
-32 -12 -107 -31 -168 -42 -180 -32 -344 -10 -507 67 -86 40 -186 65 -265 65
-149 0 -288 -68 -344 -170 -19 -35 -19 -35 -13 -5 18 82 70 141 160 181 97 43
183 54 499 65 165 5 313 13 329 17 41 11 53 34 36 69 -8 15 -16 31 -18 36 -2
4 16 7 40 7 123 0 261 68 457 222 41 32 76 56 79 54 2 -3 1 -34 -2 -69z
m-4038 -1057 c240 -83 506 -147 815 -195 l168 -26 220 -144 c121 -80 225 -145
230 -145 5 0 109 65 230 145 l221 145 132 20 c381 56 736 147 1015 261 52 21
95 38 97 36 4 -5 -1689 -1112 -1700 -1111 -10 1 -1680 1096 -1700 1115 -6 5
28 -7 75 -27 46 -20 135 -53 197 -74z"/>
<path d="M10010 17287 l0 -363 152 -112 c83 -61 153 -111 154 -109 1 1 -30
147 -68 325 -39 178 -69 325 -67 327 2 2 76 9 164 15 223 17 227 18 119 59
-117 44 -315 138 -387 184 -31 20 -60 37 -62 37 -3 0 -5 -163 -5 -363z"/>
<path d="M9841 16913 c-80 -68 -80 -68 -81 -116 l0 -49 28 19 c15 10 54 36 85
58 l56 40 1 58 c0 31 -2 57 -4 57 -2 0 -40 -30 -85 -67z"/>
<path d="M10010 16481 l0 -301 53 -41 c177 -141 482 -294 826 -413 57 -20 105
-35 107 -33 2 1 -108 165 -244 362 l-247 360 -230 173 c-126 95 -238 177 -247
183 -17 9 -18 -7 -18 -290z"/>
<path d="M9860 16265 c-23 -28 -247 -172 -347 -223 -54 -28 -132 -62 -173 -76
-82 -27 -84 -30 -150 -150 l-43 -79 29 7 c114 29 503 208 632 291 l72 47 0 99
c0 54 -2 99 -4 99 -2 0 -9 -7 -16 -15z"/>
<path d="M10008 15668 c-3 -379 -2 -619 4 -622 2 -1 250 4 551 12 302 8 551
12 554 9 3 -3 -52 -106 -122 -229 -184 -322 -187 -329 -184 -332 2 -2 143 126
313 284 l309 287 126 6 c69 4 191 7 271 8 l145 1 -136 18 -137 17 -238 183
-239 184 -125 33 c-453 121 -816 280 -1025 447 -22 18 -46 36 -52 40 -10 6
-14 -67 -15 -346z"/>
<path d="M9108 15211 c-416 -64 -759 -119 -762 -121 -4 -5 1370 -42 1497 -40
l37 0 0 140 c0 77 -3 139 -7 139 -5 -1 -349 -54 -765 -118z"/>
<path d="M8047 10970 c-80 -25 -142 -117 -153 -225 -12 -123 55 -316 146 -418
55 -63 164 -114 423 -201 346 -117 505 -192 677 -322 249 -187 421 -451 520
-798 16 -56 29 -96 29 -90 1 9 -26 253 -104 941 -5 42 -12 57 -37 78 -78 66
-167 90 -383 104 -82 6 -174 18 -203 26 -60 18 -113 61 -154 124 -38 61 -37
102 4 136 l32 27 19 -26 c53 -74 187 -17 204 88 13 80 -63 137 -193 144 -118
6 -182 -16 -255 -88 -31 -30 -59 -62 -61 -70 -4 -12 -23 -9 -114 19 -305 93
-328 106 -381 210 -40 78 -42 123 -8 156 24 25 65 34 65 15 0 -24 50 -60 83
-60 28 0 43 9 81 50 25 27 46 57 46 68 0 66 -191 142 -283 112z"/>
<path d="M9691 8874 c0 -11 3 -14 6 -6 3 7 2 16 -1 19 -3 4 -6 -2 -5 -13z"/>
<path d="M6822 9844 c-28 -19 -29 -67 -2 -94 57 -57 139 31 85 90 -22 24 -53
26 -83 4z"/>
<path d="M7080 9622 c-19 -9 -45 -32 -57 -51 -57 -85 7 -204 110 -204 82 0
137 54 137 135 0 54 -27 100 -73 121 -45 22 -73 21 -117 -1z"/>
<path d="M13091 9834 c-12 -15 -21 -32 -21 -39 0 -24 41 -65 66 -65 31 0 64
33 64 65 0 32 -33 65 -64 65 -15 0 -33 -11 -45 -26z"/>
<path d="M12800 9623 c-92 -48 -97 -193 -8 -239 126 -65 260 75 184 191 -38
58 -116 79 -176 48z"/>
<path d="M9600 7901 c0 -138 6 -147 65 -88 36 36 49 87 43 162 l-3 40 -52 3
-53 3 0 -120z"/>
<path d="M10220 7721 l0 -301 55 0 55 0 -2 298 -3 297 -52 3 -53 3 0 -300z"/>
<path d="M10840 7901 c0 -138 6 -147 65 -88 36 36 49 87 43 162 l-3 40 -52 3
-53 3 0 -120z"/>
<path d="M8498 6563 c-9 -2 -19 -12 -22 -21 -14 -49 -98 -533 -94 -537 3 -3
41 6 85 20 131 41 251 133 287 219 11 26 56 283 56 319 0 7 -282 8 -312 0z"/>
<path d="M8475 5770 c-38 -10 -84 -19 -101 -19 -17 -1 -36 -7 -41 -13 -9 -11
-116 -560 -110 -563 3 -2 382 27 384 28 9 10 54 370 49 400 -10 58 -84 190
-105 186 -3 -1 -37 -9 -76 -19z"/>
<path d="M12510 6444 c17 -60 53 -196 82 -301 50 -189 52 -193 78 -193 52 0
131 31 172 68 84 75 87 133 21 360 l-47 162 -61 0 c-34 0 -110 3 -168 6 l-106
7 29 -109z"/>
</g>
</svg>
